<svg xmlns="http://www.w3.org/2000/svg" version="1.1" xmlns:xlink="http://www.w3.org/1999/xlink" xmlns:svgjs="http://svgjs.dev/svgjs" viewBox="0 0 8.765077100327758 3.468255172540718"><g transform="matrix(1,0,0,1,4.047951990655766,1.231627586270359)"><rect width="8.765077100327758" height="8.765077100327758" x="-4.047951990655766" y="-3.880038550163879" fill="#ffffff"></rect><g><path d=" M 0.09 1.005 L 0.09 0.9809999999999999 L 0.2115 0.9209999999999999 L 0.2115 0.09899999999999987 L 0.09 0.038999999999999924 L 0.09 0.014999999999999902 L 0.546 0.014999999999999902 Q 0.714 0.014999999999999902 0.8325 0.0734999999999999 Q 0.9510000000000001 0.1319999999999999 1.01325 0.23399999999999987 Q 1.0755000000000001 0.33599999999999985 1.0755000000000001 0.46499999999999986 Q 1.0755000000000001 0.5819999999999999 1.035 0.6809999999999998 Q 0.9945 0.7799999999999999 0.9217500000000001 0.8519999999999999 Q 0.849 0.9239999999999999 0.75075 0.9644999999999999 Q 0.6525 1.005 0.5355 1.005 L 0.09 1.005 M 0.5055000000000001 0.09749999999999992 L 0.369 0.09749999999999992 L 0.369 0.9224999999999999 L 0.528 0.9224999999999999 Q 0.648 0.9224999999999999 0.7335 0.8722499999999999 Q 0.8190000000000001 0.8219999999999998 0.8655 0.7297499999999999 Q 0.912 0.6375 0.912 0.5114999999999998 Q 0.912 0.3869999999999999 0.86475 0.2932499999999999 Q 0.8175 0.1994999999999999 0.72675 0.14849999999999985 Q 0.636 0.09749999999999992 0.5055000000000001 0.09749999999999992 M 1.5944809570312501 1.0199999999999998 Q 1.4999809570312501 1.0199999999999998 1.4332309570312503 1.002 Q 1.3664809570312502 0.9839999999999999 1.2959809570312502 0.9494999999999999 L 1.28098095703125 0.702 L 1.30498095703125 0.702 L 1.3844809570312502 0.8654999999999999 Q 1.4369809570312502 0.9089999999999999 1.48798095703125 0.9284999999999999 Q 1.5389809570312503 0.9479999999999998 1.5899809570312502 0.9479999999999998 Q 1.6769809570312502 0.9479999999999998 1.7272309570312503 0.9029999999999999 Q 1.77748095703125 0.8579999999999999 1.77748095703125 0.7799999999999999 Q 1.77748095703125 0.7184999999999999 1.7497309570312503 0.6817499999999999 Q 1.72198095703125 0.6449999999999999 1.6672309570312502 0.6157499999999999 Q 1.6124809570312502 0.5864999999999999 1.53298095703125 0.5474999999999999 Q 1.4264809570312502 0.49649999999999983 1.36948095703125 0.4402499999999999 Q 1.3124809570312501 0.3839999999999999 1.3124809570312501 0.2819999999999999 Q 1.3124809570312501 0.22799999999999987 1.3387309570312502 0.17774999999999985 Q 1.36498095703125 0.12749999999999984 1.40998095703125 0.08774999999999988 Q 1.4549809570312502 0.04799999999999982 1.51048095703125 0.02399999999999991 Q 1.5659809570312502 -2.220446049250313e-16 1.62598095703125 -2.220446049250313e-16 Q 1.69648095703125 -2.220446049250313e-16 1.7579809570312501 0.016499999999999848 Q 1.8194809570312502 0.03299999999999992 1.8794809570312503 0.06449999999999989 L 1.8944809570312502 0.3044999999999999 L 1.8704809570312502 0.3044999999999999 L 1.79248095703125 0.1439999999999999 Q 1.74448095703125 0.10649999999999993 1.7054809570312501 0.08999999999999986 Q 1.6664809570312502 0.0734999999999999 1.61698095703125 0.0734999999999999 Q 1.55248095703125 0.0734999999999999 1.50973095703125 0.11699999999999988 Q 1.4669809570312502 0.16049999999999986 1.4669809570312502 0.22649999999999992 Q 1.4669809570312502 0.29999999999999993 1.5127309570312502 0.34199999999999986 Q 1.5584809570312501 0.3839999999999999 1.6604809570312502 0.43199999999999983 Q 1.7504809570312503 0.4754999999999999 1.80973095703125 0.5152499999999999 Q 1.8689809570312501 0.5549999999999999 1.89748095703125 0.6044999999999998 Q 1.9259809570312503 0.6539999999999999 1.9259809570312503 0.7304999999999999 Q 1.9259809570312503 0.8009999999999999 1.89598095703125 0.8549999999999999 Q 1.8659809570312502 0.9089999999999999 1.8164809570312501 0.9457499999999999 Q 1.76698095703125 0.9824999999999999 1.70923095703125 1.00125 Q 1.65148095703125 1.0199999999999998 1.5944809570312501 1.0199999999999998 M 2.4210043945312503 1.0199999999999998 Q 2.3265043945312502 1.0199999999999998 2.2597543945312504 1.002 Q 2.19300439453125 0.9839999999999999 2.12250439453125 0.9494999999999999 L 2.1075043945312504 0.702 L 2.1315043945312504 0.702 L 2.2110043945312503 0.8654999999999999 Q 2.26350439453125 0.9089999999999999 2.3145043945312502 0.9284999999999999 Q 2.3655043945312504 0.9479999999999998 2.41650439453125 0.9479999999999998 Q 2.5035043945312503 0.9479999999999998 2.5537543945312504 0.9029999999999999 Q 2.60400439453125 0.8579999999999999 2.60400439453125 0.7799999999999999 Q 2.60400439453125 0.7184999999999999 2.5762543945312504 0.6817499999999999 Q 2.54850439453125 0.6449999999999999 2.4937543945312504 0.6157499999999999 Q 2.43900439453125 0.5864999999999999 2.35950439453125 0.5474999999999999 Q 2.25300439453125 0.49649999999999983 2.19600439453125 0.4402499999999999 Q 2.1390043945312502 0.3839999999999999 2.1390043945312502 0.2819999999999999 Q 2.1390043945312502 0.22799999999999987 2.1652543945312503 0.17774999999999985 Q 2.1915043945312505 0.12749999999999984 2.2365043945312504 0.08774999999999988 Q 2.2815043945312503 0.04799999999999982 2.33700439453125 0.02399999999999991 Q 2.39250439453125 -2.220446049250313e-16 2.45250439453125 -2.220446049250313e-16 Q 2.52300439453125 -2.220446049250313e-16 2.5845043945312502 0.016499999999999848 Q 2.6460043945312504 0.03299999999999992 2.7060043945312504 0.06449999999999989 L 2.72100439453125 0.3044999999999999 L 2.69700439453125 0.3044999999999999 L 2.6190043945312502 0.1439999999999999 Q 2.57100439453125 0.10649999999999993 2.53200439453125 0.08999999999999986 Q 2.4930043945312503 0.0734999999999999 2.4435043945312502 0.0734999999999999 Q 2.3790043945312505 0.0734999999999999 2.33625439453125 0.11699999999999988 Q 2.2935043945312503 0.16049999999999986 2.2935043945312503 0.22649999999999992 Q 2.2935043945312503 0.29999999999999993 2.3392543945312503 0.34199999999999986 Q 2.3850043945312502 0.3839999999999999 2.48700439453125 0.43199999999999983 Q 2.5770043945312504 0.4754999999999999 2.6362543945312504 0.5152499999999999 Q 2.69550439453125 0.5549999999999999 2.72400439453125 0.6044999999999998 Q 2.7525043945312504 0.6539999999999999 2.7525043945312504 0.7304999999999999 Q 2.7525043945312504 0.8009999999999999 2.72250439453125 0.8549999999999999 Q 2.6925043945312503 0.9089999999999999 2.6430043945312502 0.9457499999999999 Q 2.59350439453125 0.9824999999999999 2.53575439453125 1.00125 Q 2.47800439453125 1.0199999999999998 2.4210043945312503 1.0199999999999998 M 3.2475278320312504 1.0199999999999998 Q 3.1530278320312504 1.0199999999999998 3.0862778320312505 1.002 Q 3.01952783203125 0.9839999999999999 2.94902783203125 0.9494999999999999 L 2.9340278320312505 0.702 L 2.9580278320312505 0.702 L 3.0375278320312504 0.8654999999999999 Q 3.09002783203125 0.9089999999999999 3.1410278320312504 0.9284999999999999 Q 3.1920278320312505 0.9479999999999998 3.2430278320312502 0.9479999999999998 Q 3.3300278320312504 0.9479999999999998 3.3802778320312505 0.9029999999999999 Q 3.4305278320312502 0.8579999999999999 3.4305278320312502 0.7799999999999999 Q 3.4305278320312502 0.7184999999999999 3.4027778320312505 0.6817499999999999 Q 3.3750278320312503 0.6449999999999999 3.3202778320312505 0.6157499999999999 Q 3.26552783203125 0.5864999999999999 3.1860278320312503 0.5474999999999999 Q 3.0795278320312502 0.49649999999999983 3.0225278320312503 0.4402499999999999 Q 2.9655278320312504 0.3839999999999999 2.9655278320312504 0.2819999999999999 Q 2.9655278320312504 0.22799999999999987 2.9917778320312505 0.17774999999999985 Q 3.0180278320312506 0.12749999999999984 3.0630278320312505 0.08774999999999988 Q 3.1080278320312504 0.04799999999999982 3.1635278320312503 0.02399999999999991 Q 3.21902783203125 -2.220446049250313e-16 3.2790278320312503 -2.220446049250313e-16 Q 3.3495278320312503 -2.220446049250313e-16 3.4110278320312504 0.016499999999999848 Q 3.4725278320312505 0.03299999999999992 3.5325278320312505 0.06449999999999989 L 3.5475278320312507 0.3044999999999999 L 3.5235278320312506 0.3044999999999999 L 3.4455278320312503 0.1439999999999999 Q 3.3975278320312503 0.10649999999999993 3.3585278320312506 0.08999999999999986 Q 3.3195278320312505 0.0734999999999999 3.2700278320312504 0.0734999999999999 Q 3.20552783203125 0.0734999999999999 3.1627778320312503 0.11699999999999988 Q 3.1200278320312504 0.16049999999999986 3.1200278320312504 0.22649999999999992 Q 3.1200278320312504 0.29999999999999993 3.1657778320312504 0.34199999999999986 Q 3.2115278320312504 0.3839999999999999 3.3135278320312502 0.43199999999999983 Q 3.4035278320312505 0.4754999999999999 3.46277783203125 0.5152499999999999 Q 3.5220278320312506 0.5549999999999999 3.5505278320312503 0.6044999999999998 Q 3.5790278320312505 0.6539999999999999 3.5790278320312505 0.7304999999999999 Q 3.5790278320312505 0.8009999999999999 3.5490278320312503 0.8549999999999999 Q 3.5190278320312505 0.9089999999999999 3.4695278320312504 0.9457499999999999 Q 3.4200278320312503 0.9824999999999999 3.3622778320312503 1.00125 Q 3.3045278320312503 1.0199999999999998 3.2475278320312504 1.0199999999999998 M 3.7710512695312506 1.005 L 3.7710512695312506 0.9809999999999999 L 3.8940512695312504 0.9209999999999999 L 3.8940512695312504 0.09899999999999987 L 3.7710512695312506 0.038999999999999924 L 3.7710512695312506 0.014999999999999902 L 4.171551269531251 0.014999999999999902 L 4.171551269531251 0.038999999999999924 L 4.0500512695312505 0.09899999999999987 L 4.0500512695312505 0.9209999999999999 L 4.171551269531251 0.9809999999999999 L 4.171551269531251 1.005 L 3.7710512695312506 1.005" fill="#231f20" fill-rule="nonzero"></path></g><g></g><g clip-path="url(#SvgjsClipPath1002)"><g clip-path="url(#a6920c1db-4511-4b32-9b00-0155108ed5368c63cfec-ad1d-4b6b-8111-5a30b792452f)"><path d=" M -1.9294353321890463 0.5025032114576073 L -2.7636642868392616 1.7870830430046163 L -2.6566159675436776 1.7870830430046163 L -2.6115060862684643 1.7176652464308422 C -2.604774663570401 1.7072876364379947 -2.590891104255647 1.6988733580654163 -2.5805134942627994 1.6988733580654163 L -2.4618721692094403 1.6988733580654163 C -2.4514945592165933 1.6988733580654163 -2.4485495617861908 1.7072876364379947 -2.455280984484254 1.7176652464308422 L -2.500390865759467 1.7870830430046163 L -1.4964272179379567 1.7870830430046163 L -1.4513173366627434 1.7176652464308422 C -1.4445859139646804 1.7072876364379947 -1.4307023546499256 1.6988733580654163 -1.4203247446570786 1.6988733580654163 L -1.3016834196037195 1.6988733580654163 C -1.2913058096108725 1.6988733580654163 -1.28836081218047 1.7072876364379947 -1.295092234878533 1.7176652464308422 L -1.3402021161537463 1.7870830430046163 L -1.2360520482976058 1.7870830430046163 L -0.40182309364739055 0.5025032114576073 L -0.505973161503531 0.5025032114576073 L -0.5585624013321477 0.5835140137891563 C -0.5653405700211698 0.5938916237820036 -0.5792241293359237 0.602305902154582 -0.5896017393287711 0.602305902154582 L -0.7081963183911713 0.602305902154582 C -0.7186206743749772 0.602305902154582 -0.7215656718053798 0.5938916237820036 -0.7147875031163582 0.5835140137891563 L -0.662198263287741 0.5025032114576073 L -1.6661619111092518 0.5025032114576073 L -1.7187511509378686 0.5835140137891563 C -1.7254825736359314 0.5938916237820036 -1.739412878941645 0.602305902154582 -1.7497904889344917 0.602305902154582 L -1.8683850679968923 0.602305902154582 C -1.878809423980698 0.602305902154582 -1.8817544214111006 0.5938916237820036 -1.8749762527220788 0.5835140137891563 L -1.8223870128934623 0.5025032114576073 Z M -1.2886412881262226 1.4671067348918334 C -1.281863119437201 1.456729124898986 -1.2679795601224462 1.4483148465264075 -1.2576019501295992 1.4483148465264075 L -1.13896062507624 1.4483148465264075 C -1.128583015083393 1.4483148465264075 -1.1256380176529905 1.456729124898986 -1.1323694403510531 1.4671067348918334 L -1.2094068334511072 1.5857480599451925 C -1.2161850021401288 1.5961256699380395 -1.2300685614548832 1.604539948310618 -1.2404461714477306 1.604539948310618 L -1.3590407505101307 1.604539948310618 C -1.3694651064939367 1.604539948310618 -1.3724101039243393 1.5961256699380395 -1.3656786812262762 1.5857480599451925 Z M -1.1259184935987427 1.2165482233528242 C -1.1191870709006801 1.2061706133599772 -1.1052567655949668 1.1977563349873988 -1.0948791556021193 1.1977563349873988 L -0.9762845765397192 1.1977563349873988 C -0.9658602205559133 1.1977563349873988 -0.9629152231255107 1.2061706133599772 -0.9696933918145327 1.2165482233528242 L -1.046730784914586 1.3351895484061833 C -1.053462207612649 1.3455671583990307 -1.0673457669274038 1.3539814367716092 -1.0777233769202508 1.3539814367716092 L -1.19636470197361 1.3539814367716092 C -1.2067423119664573 1.3539814367716092 -1.2096873093968594 1.3455671583990307 -1.2029558866987968 1.3351895484061833 Z M -0.9631956990712633 0.9659897118138154 C -0.9564642763732008 0.9556121018209685 -0.9425807170584455 0.9471978234483898 -0.932203107065599 0.9471978234483898 L -0.8135617820122398 0.9471978234483898 C -0.8031841720193924 0.9471978234483898 -0.8002391745889903 0.9556121018209685 -0.8069705972870529 0.9659897118138154 L -0.884007990387107 1.0846310368671745 C -0.8907394130851696 1.0950086468600213 -0.904622972399924 1.1034229252326 -0.9150005823927714 1.1034229252326 L -1.0336419074461305 1.1034229252326 C -1.0440195174389775 1.1034229252326 -1.04696451486938 1.0950086468600213 -1.040233092171317 1.0846310368671745 Z M -0.8004729045437835 0.7154312002748062 C -0.7937414818457209 0.7050535902819595 -0.7798579225309665 0.6966393119093808 -0.7694803125381195 0.6966393119093808 L -0.65083898748476 0.6966393119093808 C -0.640461377491913 0.6966393119093808 -0.6375163800615105 0.7050535902819595 -0.6442478027595735 0.7154312002748062 L -0.7212851958596267 0.8340725253281653 C -0.7280166185576902 0.8444501353210125 -0.741900177872445 0.8528644136935912 -0.7523245338562505 0.8528644136935912 L -0.8709191129186507 0.8528644136935912 C -0.8812967229114976 0.8528644136935912 -0.8842884663328592 0.8444501353210125 -0.8775102976438376 0.8340725253281653 Z M -2.4488300377319434 1.4671067348918334 C -2.4420518690429214 1.456729124898986 -2.428168309728167 1.4483148465264075 -2.4177906997353196 1.4483148465264075 L -2.299149374681961 1.4483148465264075 C -2.2887717646891135 1.4483148465264075 -2.285826767258711 1.456729124898986 -2.2925581899567744 1.4671067348918334 L -2.369595583056827 1.5857480599451925 C -2.376373751745849 1.5961256699380395 -2.390257311060604 1.604539948310618 -2.400634921053451 1.604539948310618 L -2.519229500115851 1.604539948310618 C -2.5296538560996575 1.604539948310618 -2.5325988535300596 1.5961256699380395 -2.525820684841038 1.5857480599451925 Z M -2.286107243204464 1.2165482233528242 C -2.279329074515442 1.2061706133599772 -2.265445515200687 1.1977563349873988 -2.2550679052078406 1.1977563349873988 L -2.13647332614544 1.1977563349873988 C -2.1260489701616345 1.1977563349873988 -2.1231039727312315 1.2061706133599772 -2.1298821414202536 1.2165482233528242 L -2.2069195345203068 1.3351895484061833 C -2.21365095721837 1.3455671583990307 -2.2275345165331246 1.3539814367716092 -2.2379121265259716 1.3539814367716092 L -2.3565534515793307 1.3539814367716092 C -2.3669310615721777 1.3539814367716092 -2.3698760590025802 1.3455671583990307 -2.3631446363045177 1.3351895484061833 Z M -2.123384448676984 0.9659897118138154 C -2.1166530259789216 0.9556121018209685 -2.1027694666641663 0.9471978234483898 -2.0923451106803608 0.9471978234483898 L -1.9737505316179604 0.9471978234483898 C -1.9633729216251135 0.9471978234483898 -1.960427924194711 0.9556121018209685 -1.9671593468927737 0.9659897118138154 L -2.0441967399928274 1.0846310368671745 C -2.0509281626908904 1.0950086468600213 -2.0648117220056452 1.1034229252326 -2.075189331998492 1.1034229252326 L -2.1938306570518513 1.1034229252326 C -2.204208267044698 1.1034229252326 -2.2071532644751004 1.0950086468600213 -2.200421841777038 1.0846310368671745 Z M -1.9606616541495048 0.7154312002748062 C -1.953930231451442 0.7050535902819595 -1.940046672136687 0.6966393119093808 -1.9296690621438402 0.6966393119093808 L -1.811027737090481 0.6966393119093808 C -1.8006501270976338 0.6966393119093808 -1.7977051296672315 0.7050535902819595 -1.8044365523652945 0.7154312002748062 L -1.881473945465348 0.8340725253281653 C -1.8882053681634108 0.8444501353210125 -1.9020889274781656 0.8528644136935912 -1.9125132834619714 0.8528644136935912 L -2.031107862524372 0.8528644136935912 C -2.041485472517219 0.8528644136935912 -2.0444304699476215 0.8444501353210125 -2.0376990472495584 0.8340725253281653 Z" fill="#bdbcbc" transform="matrix(1,0,0,1,0,0)" fill-rule="nonzero"></path></g><g clip-path="url(#a6920c1db-4511-4b32-9b00-0155108ed5368c63cfec-ad1d-4b6b-8111-5a30b792452f)"><path d=" M -2.6571301734442243 1.7870830430046163 L -2.709719413272841 1.7060722406730675 C -2.7164975819618626 1.69569463068022 -2.71355258453146 1.6872803523076416 -2.703128228547654 1.6872803523076416 L -2.5845336494852535 1.6872803523076416 C -2.574156039492407 1.6872803523076416 -2.560272480177652 1.69569463068022 -2.55349431148863 1.7060722406730675 L -2.500905071660014 1.7870830430046163 L -1.4969414238385035 1.7870830430046163 L -1.5495774096580792 1.7060722406730675 C -1.5563088323561418 1.69569463068022 -1.5533638349257393 1.6872803523076416 -1.5429394789419333 1.6872803523076416 L -1.4243448998795332 1.6872803523076416 C -1.4139672898866862 1.6872803523076416 -1.4000837305719318 1.69569463068022 -1.3933055618829093 1.7060722406730675 L -1.340716322054293 1.7870830430046163 L -1.2365662541981526 1.7870830430046163 L -2.0707952088483683 0.5025032114576073 L -2.1749452767045083 0.5025032114576073 L -2.1298353954292955 0.5719210080313815 C -2.123103972731232 0.5822986180242284 -2.1260489701616345 0.5907128963968071 -2.136426580154482 0.5907128963968071 L -2.2550679052078406 0.5907128963968071 C -2.2654455152006876 0.5907128963968071 -2.2793290745154424 0.5822986180242284 -2.286060497213505 0.5719210080313815 L -2.3311703784887188 0.5025032114576073 L -3.335134026310229 0.5025032114576073 L -3.290024145035016 0.5719210080313815 C -3.283292722336953 0.5822986180242284 -3.2862377197673553 0.5907128963968071 -3.2966153297602023 0.5907128963968071 L -3.4152566548135614 0.5907128963968071 C -3.4256342648064084 0.5907128963968071 -3.4395178241211632 0.5822986180242284 -3.4462492468192263 0.5719210080313815 L -3.4913591280944396 0.5025032114576073 L -3.5984074473900236 0.5025032114576073 L -2.7641784927398083 1.7870830430046163 Z M -2.200421841777038 0.7038381945170313 C -2.2071532644751013 0.6934605845241844 -2.2042082670446987 0.6850463061516057 -2.193783911060893 0.6850463061516057 L -2.0751893319984926 0.6850463061516057 C -2.0648117220056457 0.6850463061516057 -2.050928162690891 0.6934605845241844 -2.0441499940018693 0.7038381945170313 L -1.9671126009018156 0.8224795195703902 C -1.9603811782037526 0.8328571295632379 -1.9633261756341551 0.8412714079358163 -1.973703785627002 0.8412714079358163 L -2.092345110680361 0.8412714079358163 C -2.102722720673208 0.8412714079358163 -2.1166062799879635 0.8328571295632379 -2.123384448676985 0.8224795195703902 Z M -2.037699047249559 0.9543967060560403 C -2.0444304699476215 0.9440190960631931 -2.041485472517219 0.9356048176906147 -2.031107862524372 0.9356048176906147 L -1.9124665374710128 0.9356048176906147 C -1.902088927478166 0.9356048176906147 -1.8882053681634112 0.9440190960631931 -1.881473945465348 0.9543967060560403 L -1.8044365523652948 1.0730380311093994 C -1.797658383676273 1.0834156411022466 -1.8006033811066753 1.091829919474825 -1.8110277370904813 1.091829919474825 L -1.9296223161528816 1.091829919474825 C -1.9399999261457286 1.091829919474825 -1.9539302314514422 1.0834156411022466 -1.9606616541495048 1.0730380311093994 Z M -1.874976252722079 1.2049552175950495 C -1.881707675420142 1.1945776076022023 -1.8787626779897395 1.1861633292296236 -1.8683850679968925 1.1861633292296236 L -1.7497437429435336 1.1861633292296236 C -1.7393661329506864 1.1861633292296236 -1.7254825736359318 1.1945776076022023 -1.7187511509378688 1.2049552175950495 L -1.6417137578378154 1.3235965426484086 C -1.6349823351397526 1.3339741526412552 -1.6379273325701549 1.342388431013834 -1.6483049425630016 1.342388431013834 L -1.7669462676163608 1.342388431013834 C -1.7773238776092082 1.342388431013834 -1.7912074369239628 1.3339741526412552 -1.7979388596220256 1.3235965426484086 Z M -1.7122534581945996 1.4555137291340583 C -1.719031626883621 1.4451361191412113 -1.7160398834622599 1.4367218407686329 -1.705662273469413 1.4367218407686329 L -1.5870676944070126 1.4367218407686329 C -1.576643338423207 1.4367218407686329 -1.5627597791084522 1.4451361191412113 -1.5560283564103892 1.4555137291340583 L -1.4789909633103355 1.5741550541874174 C -1.472259540612273 1.5845326641802644 -1.4752045380426755 1.5929469425528429 -1.4855821480355225 1.5929469425528429 L -1.6042234730888814 1.5929469425528429 C -1.6146010830817283 1.5929469425528429 -1.628484642396483 1.5845326641802644 -1.6352160650945462 1.5741550541874174 Z M -3.3605638453918 0.7038381945170313 C -3.3673420140808217 0.6934605845241844 -3.3643970166504196 0.6850463061516057 -3.3539726606666136 0.6850463061516057 L -3.235378081604213 0.6850463061516057 C -3.2250004716113665 0.6850463061516057 -3.2111169122966112 0.6934605845241844 -3.2043387436075896 0.7038381945170313 L -3.1273013505075364 0.8224795195703902 C -3.1205699278094734 0.8328571295632379 -3.123514925239876 0.8412714079358163 -3.133892535232723 0.8412714079358163 L -3.252533860286082 0.8412714079358163 C -3.262911470278929 0.8412714079358163 -3.276795029593684 0.8328571295632379 -3.2835731982827054 0.8224795195703902 Z M -3.1978877968552792 0.9543967060560403 C -3.2046192195533423 0.9440190960631931 -3.2016742221229397 0.9356048176906147 -3.1912966121300927 0.9356048176906147 L -3.0726552870767336 0.9356048176906147 C -3.0622776770838867 0.9356048176906147 -3.048394117769132 0.9440190960631931 -3.0416159490801102 0.9543967060560403 L -2.9646253019710156 1.0730380311093994 C -2.957847133281994 1.0834156411022466 -2.960792130712396 1.091829919474825 -2.971216486696202 1.091829919474825 L -3.089811065758602 1.091829919474825 C -3.1001886757514496 1.091829919474825 -3.114118981057163 1.0834156411022466 -3.120850403755226 1.0730380311093994 Z M -3.0351650023278 1.2049552175950495 C -3.041896425025863 1.1945776076022023 -3.0389514275954603 1.1861633292296236 -3.0285738176026133 1.1861633292296236 L -2.9099324925492542 1.1861633292296236 C -2.8995548825564073 1.1861633292296236 -2.8856713232416524 1.1945776076022023 -2.8789399005435894 1.2049552175950495 L -2.801902507443536 1.3235965426484086 C -2.795171084745473 1.3339741526412552 -2.7981160821758757 1.342388431013834 -2.8084936921687227 1.342388431013834 L -2.927088271231123 1.342388431013834 C -2.937512627214929 1.342388431013834 -2.9513961865296836 1.3339741526412552 -2.9581276092277466 1.3235965426484086 Z M -2.8724422078003204 1.4555137291340583 C -2.8791736304983835 1.4451361191412113 -2.876228633067981 1.4367218407686329 -2.865851023075134 1.4367218407686329 L -2.7472564440127334 1.4367218407686329 C -2.736832088028928 1.4367218407686329 -2.722948528714173 1.4451361191412113 -2.71621710601611 1.4555137291340583 L -2.6391797129160564 1.5741550541874174 C -2.6324482902179938 1.5845326641802644 -2.6353932876483963 1.5929469425528429 -2.645770897641243 1.5929469425528429 L -2.7644122226946024 1.5929469425528429 C -2.774789832687449 1.5929469425528429 -2.788673392002204 1.5845326641802644 -2.795404814700267 1.5741550541874174 Z" fill="#696767" transform="matrix(1,0,0,1,0,0)" fill-rule="nonzero"></path></g><g clip-path="url(#a6920c1db-4511-4b32-9b00-0155108ed5368c63cfec-ad1d-4b6b-8111-5a30b792452f)"><path d=" M -2.8612231699702155 -0.44330842361119266 C -2.8716007799630625 -0.44330842361119266 -2.874545777393465 -0.4517227019837713 -2.867814354695402 -0.4621003119766183 L -2.8205541578360855 -0.5348370739084649 L -2.8714137959992274 -0.6169230340320656 L -3.5984074473900236 0.5025032114576073 L -3.494257379533883 0.5025032114576073 L -3.441621393714308 0.42149240912605856 C -3.4348899710162453 0.4110680531422526 -3.4210064117014904 0.4026537747696741 -3.410628801708643 0.4026537747696741 L -3.291987476655284 0.4026537747696741 C -3.2816098666624374 0.4026537747696741 -3.278664869232035 0.4110680531422526 -3.2853962919300974 0.42149240912605856 L -3.337985531758714 0.5025032114576073 L -2.3340686299281623 0.5025032114576073 L -2.2814326441085875 0.42149240912605856 C -2.274701221410524 0.41111479913321136 -2.2608176620957696 0.4026537747696741 -2.250440052102922 0.4026537747696741 L -2.2396417281914465 0.4026537747696741 L -2.763851270803097 -0.44330842361119266 Z M -3.122673497402618 0.17093389758704947 L -3.1997108905026717 0.2895284766494499 C -3.2064423132007343 0.2999528326332557 -3.220372618506448 0.30836711100583414 -3.230750228499295 0.30836711100583414 L -3.349344807561695 0.30836711100583414 C -3.359722417554542 0.30836711100583414 -3.3627141609759037 0.29995283263325545 -3.355935992286882 0.2895284766494497 L -3.2788985991868285 0.17093389758704947 C -3.2721671764887654 0.16055628759420226 -3.2582836171740106 0.1521420092216237 -3.2479060071811636 0.1521420092216237 L -3.1292646821278045 0.1521420092216237 C -3.1188870721349575 0.1521420092216237 -3.115942074704555 0.16055628759420226 -3.122673497402618 0.17093389758704947 M -2.9599507028751386 -0.07962461395195963 L -3.036988095975192 0.038969965110440596 C -3.043766264664214 0.049394321094246574 -3.0576498239789682 0.05780859946682526 -3.0680274339718157 0.05780859946682526 L -3.1866687590251743 0.05780859946682526 C -3.1970463690180217 0.05780859946682526 -3.1999913664484243 0.049394321094246574 -3.1932599437503613 0.038969965110440596 L -3.1162225506503076 -0.07962461395195963 C -3.109444381961286 -0.09000222394480661 -3.095560822646531 -0.0984165023173853 -3.0851832126536842 -0.0984165023173853 L -2.966541887600325 -0.0984165023173853 C -2.956164277607478 -0.0984165023173853 -2.9532192801770756 -0.09000222394480661 -2.9599507028751386 -0.07962461395195963 M -2.7972746543386178 -0.3301831254909686 L -2.8743120474386714 -0.2115418004376094 C -2.881043470136734 -0.2011641904447623 -2.894927029451489 -0.19274991207218373 -2.905304639444336 -0.19274991207218373 L -3.023945964497695 -0.19274991207218373 C -3.034323574490542 -0.19274991207218373 -3.0372685719209445 -0.2011641904447623 -3.030537149222882 -0.2115418004376094 L -2.9534997561228282 -0.3301831254909684 C -2.946768333424765 -0.34056073548381544 -2.932838028119052 -0.34897501385639407 -2.922460418126205 -0.34897501385639407 L -2.8038658390638043 -0.34897501385639407 C -2.7934882290709573 -0.34897501385639407 -2.790496485649596 -0.34056073548381544 -2.7972746543386178 -0.3301831254909684" fill="#4b4748" transform="matrix(1,0,0,1,0,0)" fill-rule="nonzero"></path></g><g clip-path="url(#SvgjsClipPath10008c63cfec-ad1d-4b6b-8111-5a30b792452f)"><path d=" M -2.7641647206352515 -0.7820830430046164 L -2.8349848969377884 -0.673071392088764 Z" fill="#231f20" transform="matrix(1,0,0,1,0,0)" fill-rule="nonzero"></path></g><g clip-path="url(#SvgjsClipPath10008c63cfec-ad1d-4b6b-8111-5a30b792452f)"><path d=" M -2.5037772135283936 -0.7820830430046164 L -1.5383790082478686 -0.7592709994167365 Z" fill="#231f20" transform="matrix(1,0,0,1,0,0)" fill-rule="nonzero"></path></g><g clip-path="url(#b6920c1db-4511-4b32-9b00-0155108ed5368c63cfec-ad1d-4b6b-8111-5a30b792452f)"><path d=" M -1.806399883985563 -0.09841650231738519 L -1.925041209038922 -0.09841650231738519 C -1.9354188190317692 -0.09841650231738519 -1.9493023783465238 -0.0900022239448065 -1.9560338010445868 -0.07962461395195952 L -2.0330711941446404 0.03901671110139959 C -2.0398026168427035 0.049394321094246574 -2.0368576194123005 0.05780859946682526 -2.0264800094194535 0.05780859946682526 L -1.9078386843660946 0.05780859946682526 C -1.8974610743732476 0.05780859946682526 -1.8835775150584928 0.049394321094246574 -1.8768460923604298 0.03901671110139959 L -1.7998086992603763 -0.07962461395195952 C -1.7930772765623135 -0.0900022239448065 -1.796022273992716 -0.09841650231738519 -1.806399883985563 -0.09841650231738519" fill="#231f20" transform="matrix(1,0,0,1,0,0)" fill-rule="nonzero"></path></g><g clip-path="url(#b6920c1db-4511-4b32-9b00-0155108ed5368c63cfec-ad1d-4b6b-8111-5a30b792452f)"><path d=" M -1.6436770894580834 -0.34897501385639396 L -1.7623184145114423 -0.34897501385639396 C -1.7726960245042895 -0.34897501385639396 -1.7865795838190441 -0.34056073548381527 -1.7933110065171072 -0.3301831254909683 L -1.8703483996171608 -0.21154180043760917 C -1.8770798223152234 -0.2011641904447622 -1.874134824884821 -0.1927499120721835 -1.8637572148919739 -0.1927499120721835 L -1.745115889838615 -0.1927499120721835 C -1.734738279845768 -0.1927499120721835 -1.7208547205310132 -0.2011641904447622 -1.7141232978329501 -0.21154180043760917 L -1.6370859047328967 -0.3301831254909683 C -1.630354482034834 -0.34056073548381527 -1.6332994794652365 -0.34897501385639396 -1.6436770894580834 -0.34897501385639396" fill="#231f20" transform="matrix(1,0,0,1,0,0)" fill-rule="nonzero"></path></g><g clip-path="url(#SvgjsClipPath10008c63cfec-ad1d-4b6b-8111-5a30b792452f)"><path d=" M -2.871447038091423 -0.6168822979544595 L -2.8349851651435825 -0.6730709790869014 Z" fill="#231f20" transform="matrix(1,0,0,1,0,0)" fill-rule="nonzero"></path></g><g clip-path="url(#c6920c1db-4511-4b32-9b00-0155108ed5368c63cfec-ad1d-4b6b-8111-5a30b792452f)"><path d=" M -1.480954294930604 -0.599533525395403 L -1.5995956199839632 -0.599533525395403 C -1.6099732299768104 -0.599533525395403 -1.623856789291565 -0.5911192470228244 -1.630588211989628 -0.5807416370299774 L -1.7076256050896814 -0.4621003119766182 C -1.7143570277877442 -0.4517227019837713 -1.711412030357342 -0.44330842361119255 -1.7010344203644947 -0.44330842361119255 L -1.5823930953111356 -0.44330842361119255 C -1.5720154853182886 -0.44330842361119255 -1.5581319260035338 -0.4517227019837713 -1.5514005033054707 -0.4621003119766182 L -1.4743631102054175 -0.5807416370299774 C -1.4676316875073545 -0.5911192470228244 -1.470576684937757 -0.599533525395403 -1.480954294930604 -0.599533525395403" fill="#231f20" transform="matrix(1,0,0,1,0,0)" fill-rule="nonzero"></path></g><g clip-path="url(#c6920c1db-4511-4b32-9b00-0155108ed5368c63cfec-ad1d-4b6b-8111-5a30b792452f)"><path d=" M -1.343614573493737 -0.7820766200894014 L -1.3887244547689503 -0.7126588235156274 C -1.395455877467013 -0.7022344675318216 -1.4093394367817678 -0.6938201891592429 -1.4197170467746147 -0.6938201891592429 L -1.5383583718279743 -0.6938201891592429 C -1.5487359818208208 -0.6938201891592429 -1.5516809792512238 -0.7022344675318216 -1.5449495565531608 -0.7126588235156274 L -1.529055919627179 -0.7288796823783207 L -2.503803323099458 -0.7820766200894014 L -2.5489132043746707 -0.7126588235156274 C -2.5556446270727338 -0.7022344675318216 -2.5695281863874886 -0.6938201891592429 -2.579905796380336 -0.6938201891592429 L -2.6985471214336947 -0.6938201891592429 C -2.708924731426542 -0.6938201891592429 -2.711869728856944 -0.7022344675318216 -2.705138306158881 -0.7126588235156274 L -2.657971601281482 -0.7732883737891525 L -2.765487380486654 -0.7820766200894014 L -2.834998669042345 -0.673064969173549 L -2.8714605419901864 -0.6168762880411071 L -2.820600903827044 -0.5348370739084651 L -2.7908237075863074 -0.5806948910390188 C -2.784045538897286 -0.5910725010318658 -2.770161979582531 -0.5995335253954033 -2.7597843695896835 -0.5995335253954033 L -2.6411430445363244 -0.5995335253954033 C -2.6307654345434774 -0.5995335253954033 -2.6278204371130753 -0.5910725010318658 -2.634551859811138 -0.5806948910390188 L -2.7115892529111916 -0.46210031197661844 C -2.718367421600213 -0.4517227019837714 -2.732250980914968 -0.44326167762023405 -2.742628590907815 -0.44326167762023405 L -2.7638980167940552 -0.44326167762023405 L -2.239688474182405 0.4027005207606327 L -2.131845473040522 0.4027005207606327 C -2.1214211170567165 0.4027005207606327 -2.1184761196263135 0.41111479913321114 -2.125254288315335 0.42149240912605834 L -2.177843528143952 0.5025032114576073 L -2.0707952088483683 0.5025032114576073 L -1.2462426743266182 -0.7639391755973984 Z M -1.962531493787856 0.17093389758704935 L -2.0395688868879094 0.28957522264040847 C -2.0463003095859724 0.29995283263325545 -2.0601838689007272 0.30836711100583414 -2.0705614788935742 0.30836711100583414 L -2.189202803946933 0.30836711100583414 C -2.1995804139397803 0.30836711100583414 -2.202525411370183 0.29995283263325545 -2.19579398867212 0.28957522264040847 L -2.118756595572066 0.17093389758704935 C -2.112025172874003 0.16055628759420226 -2.0981416135592488 0.1521420092216237 -2.087717257575443 0.1521420092216237 L -1.9691226785130422 0.1521420092216237 C -1.9587450685201955 0.1521420092216237 -1.9558000710897927 0.16055628759420226 -1.9625314937878557 0.17093389758704935 M -1.7998086992603761 -0.07957786796100086 L -1.8768460923604298 0.03901671110139959 C -1.8835775150584928 0.049394321094246574 -1.8974610743732476 0.05780859946682526 -1.9078854303570534 0.05780859946682526 L -2.026480009419454 0.05780859946682526 C -2.0368576194123005 0.05780859946682526 -2.0398026168427035 0.049394321094246574 -2.0330711941446404 0.03901671110139959 L -1.9560338010445868 -0.07957786796100086 C -1.9493023783465238 -0.0900022239448065 -1.935418819031769 -0.09841650231738519 -1.925041209038922 -0.09841650231738519 L -1.806399883985563 -0.09841650231738519 C -1.796022273992716 -0.09841650231738519 -1.7930772765623135 -0.0900022239448065 -1.7998086992603763 -0.07957786796100086 M -1.6370859047328967 -0.3301363795000097 L -1.7141232978329504 -0.2115418004376094 C -1.7208547205310134 -0.20116419044476241 -1.7347850258367268 -0.19274991207218373 -1.745162635829574 -0.19274991207218373 L -1.8637572148919743 -0.19274991207218373 C -1.8741815708757799 -0.19274991207218373 -1.8771265683061826 -0.20116419044476241 -1.8703483996171608 -0.2115418004376094 L -1.7933110065171074 -0.3301363795000097 C -1.7865795838190446 -0.3405607354838155 -1.7726960245042895 -0.3489750138563942 -1.7623184145114428 -0.3489750138563942 L -1.6436770894580837 -0.3489750138563942 C -1.6332994794652365 -0.3489750138563942 -1.630354482034834 -0.3405607354838155 -1.6370859047328967 -0.3301363795000097 M -1.474409856196376 -0.5806948910390186 L -1.5514005033054707 -0.4621003119766184 C -1.5581786719944928 -0.4516759559928125 -1.5720622313092472 -0.4432616776202339 -1.5824398413020946 -0.4432616776202339 L -1.7010811663554535 -0.4432616776202339 C -1.7114587763483005 -0.4432616776202339 -1.714403773778703 -0.4517227019837713 -1.70767235108064 -0.4621003119766184 L -1.6306349579805868 -0.5806948910390186 C -1.623856789291565 -0.5910725010318657 -1.60997322997681 -0.599533525395403 -1.5995956199839632 -0.599533525395403 L -1.481001040921563 -0.599533525395403 C -1.470576684937757 -0.599533525395403 -1.4676316875073545 -0.5910725010318657 -1.474409856196376 -0.5806948910390186" fill="#423e3f" transform="matrix(1,0,0,1,0,0)" fill-rule="nonzero"></path></g><g clip-path="url(#c6920c1db-4511-4b32-9b00-0155108ed5368c63cfec-ad1d-4b6b-8111-5a30b792452f)"><path d=" M -1.3412772739457983 -0.7820766200894014 L -1.288688034117182 -0.7010658177578524 C -1.28190986542816 -0.6906882077650054 -1.2848548628585625 -0.6822739293924267 -1.2952792188423685 -0.6822739293924267 L -1.4138737979047686 -0.6822739293924267 C -1.4242514078976156 -0.6822739293924267 -1.4381349672123704 -0.6906882077650054 -1.444913135901392 -0.7010658177578524 L -1.505636178156835 -0.7820766200894014 L -2.5014660235515196 -0.7820766200894014 L -2.448876783722903 -0.7010658177578524 C -2.4420986150338813 -0.6906882077650054 -2.4450436124642834 -0.6822739293924267 -2.4554679684480893 -0.6822739293924267 L -2.5740625475104895 -0.6822739293924267 C -2.5844401575033364 -0.6822739293924267 -2.5983237168180913 -0.6906882077650054 -2.6051018855071133 -0.7010658177578524 L -2.6576911253357296 -0.7820766200894014 L -2.76184119319187 -0.7820766200894014 L -1.9276122385416548 0.5025032114576073 L -1.8234621706855145 0.5025032114576073 L -1.8685720519607278 0.43308541488383345 C -1.8753034746587909 0.42270780489098625 -1.872358477228388 0.41429352651840756 -1.8619808672355413 0.41429352651840756 L -1.7433395421821822 0.41429352651840756 C -1.732961932189335 0.41429352651840756 -1.7190783728745804 0.42270780489098625 -1.7123469501765174 0.43308541488383345 L -1.6672370689013039 0.5025032114576073 L -0.6632734210797939 0.5025032114576073 L -0.7083833023550072 0.43308541488383345 C -0.7151147250530698 0.42270780489098625 -0.7121697276226673 0.41429352651840756 -0.7017921176298203 0.41429352651840756 L -0.5831507925764612 0.41429352651840756 C -0.5727731825836146 0.41429352651840756 -0.5588896232688598 0.42270780489098625 -0.5521582005707963 0.43308541488383345 L -0.507048319295583 0.5025032114576073 L -0.39999999999999947 0.5025032114576073 L -1.2342289546502143 -0.7820766200894014 Z M -1.7979856056129844 0.30116822839818336 C -1.7912541829149216 0.31154583839103034 -1.7941991803453243 0.319960116763609 -1.80462353632913 0.319960116763609 L -1.9232181153915302 0.319960116763609 C -1.9335957253843772 0.319960116763609 -1.947479284699132 0.31154583839103034 -1.9542574533881536 0.30116822839818336 L -2.031294846488207 0.18252690334482435 C -2.03802626918627 0.17214929335197715 -2.0350812717558675 0.16373501497939857 -2.02470366176302 0.16373501497939857 L -1.9060623367096612 0.16373501497939857 C -1.8956847267168144 0.16373501497939857 -1.8818011674020598 0.17214929335197715 -1.875022998713038 0.18252690334482435 Z M -1.960708400140464 0.05060971685917448 C -1.953976977442401 0.06098732685202146 -1.9569219748728035 0.06940160522460015 -1.9672995848656505 0.06940160522460015 L -2.08594090991901 0.06940160522460015 C -2.096318519911857 0.06940160522460015 -2.1102020792266116 0.06098732685202146 -2.116933501924674 0.05060971685917448 L -2.193970895024728 -0.06803160819418452 C -2.20074906371375 -0.07840921818703162 -2.1978040662833473 -0.0868234965596103 -2.1873797102995414 -0.0868234965596103 L -2.0687851312371413 -0.0868234965596103 C -2.0584075212442943 -0.0868234965596103 -2.044477215938581 -0.07840921818703162 -2.037745793240518 -0.06803160819418452 Z M -2.1234311946679436 -0.1999487946798345 C -2.1166997719698806 -0.18957118468698753 -2.119644769400283 -0.18115690631440884 -2.13002237939313 -0.18115690631440884 L -2.248663704446489 -0.18115690631440884 C -2.259041314439336 -0.18115690631440884 -2.272924873754091 -0.18957118468698753 -2.2796562964521536 -0.1999487946798345 L -2.3566936895522073 -0.31859011973319357 C -2.3634251122502703 -0.3289677297260406 -2.3604801148198677 -0.33738200809861923 -2.3501025048270208 -0.33738200809861923 L -2.23150792576462 -0.33738200809861923 C -2.2210835697808147 -0.33738200809861923 -2.2072000104660603 -0.3289677297260406 -2.200468587767997 -0.31859011973319357 Z M -2.286153989195423 -0.4505073062188435 C -2.2793758205064014 -0.44012969622599646 -2.282367563927763 -0.4317154178534178 -2.2927451739206095 -0.4317154178534178 L -2.41133975298301 -0.4317154178534178 C -2.4217641089668156 -0.4317154178534178 -2.435647668281571 -0.44012969622599646 -2.4423790909796335 -0.4505073062188435 L -2.519416484079687 -0.5691486312722025 C -2.5261479067777497 -0.5795262412650495 -2.523202909347347 -0.5879405196376282 -2.5128252993545006 -0.5879405196376282 L -2.3941839743011415 -0.5879405196376282 C -2.3838063643082945 -0.5879405196376282 -2.3699228049935392 -0.5795262412650495 -2.3631913822954767 -0.5691486312722025 Z M -0.6378436019982225 0.30116822839818336 C -0.6310654333092005 0.31154583839103034 -0.6340104307396031 0.319960116763609 -0.6444347867234086 0.319960116763609 L -0.7630293657858096 0.319960116763609 C -0.7734069757786566 0.319960116763609 -0.787290535093411 0.31154583839103034 -0.794068703782433 0.30116822839818336 L -0.8711060968824866 0.18252690334482435 C -0.8778375195805492 0.17214929335197715 -0.8748925221501467 0.16373501497939857 -0.8645149121572997 0.16373501497939857 L -0.7458735871039406 0.16373501497939857 C -0.7354959771110936 0.16373501497939857 -0.7216124177963392 0.17214929335197715 -0.7148342491073172 0.18252690334482435 Z M -0.8005196505347429 0.05060971685917448 C -0.7937882278366803 0.06098732685202146 -0.7967332252670829 0.06940160522460015 -0.8071108352599299 0.06940160522460015 L -0.925752160313289 0.06940160522460015 C -0.936129770306136 0.06940160522460015 -0.9500133296208912 0.06098732685202146 -0.9567447523189538 0.05060971685917448 L -1.033782145419007 -0.06803160819418452 C -1.0405603141080286 -0.07840921818703162 -1.0376153166776265 -0.0868234965596103 -1.027190960693821 -0.0868234965596103 L -0.90859638163142 -0.0868234965596103 C -0.898218771638573 -0.0868234965596103 -0.8843352123238186 -0.07840921818703162 -0.877557043634797 -0.06803160819418452 Z M -0.9632424450622228 -0.1999487946798345 C -0.9565110223641597 -0.18957118468698753 -0.9594560197945623 -0.18115690631440884 -0.9698336297874093 -0.18115690631440884 L -1.0884749548407684 -0.18115690631440884 C -1.0988525648336154 -0.18115690631440884 -1.1127361241483702 -0.18957118468698753 -1.1194675468464332 -0.1999487946798345 L -1.1965049399464864 -0.31859011973319357 C -1.2032831086355085 -0.3289677297260406 -1.200291365214147 -0.33738200809861923 -1.1899137552213 -0.33738200809861923 L -1.0713191761588998 -0.33738200809861923 C -1.0608948201750938 -0.33738200809861923 -1.047011260860339 -0.3289677297260406 -1.0402798381622764 -0.31859011973319357 Z M -1.1259652395897022 -0.4505073062188435 C -1.1192338168916391 -0.44012969622599646 -1.1221788143220417 -0.4317154178534178 -1.1325564243148887 -0.4317154178534178 L -1.2511510033772892 -0.4317154178534178 C -1.2615753593610952 -0.4317154178534178 -1.2754589186758496 -0.44012969622599646 -1.2821903413739126 -0.4505073062188435 L -1.3592277344739663 -0.5691486312722025 C -1.3659591571720293 -0.5795262412650495 -1.3630141597416268 -0.5879405196376282 -1.3526365497487798 -0.5879405196376282 L -1.2339952246954202 -0.5879405196376282 C -1.2236176147025737 -0.5879405196376282 -1.2097340553878189 -0.5795262412650495 -1.2030026326897558 -0.5691486312722025 Z" fill="#f89c2a" transform="matrix(1,0,0,1,0,0)" fill-rule="nonzero"></path></g><g clip-path="url(#c6920c1db-4511-4b32-9b00-0155108ed5368c63cfec-ad1d-4b6b-8111-5a30b792452f)"><path d=" M -1.17962963721037 1.5397967508327213 L -1.2094068334511068 1.5857013139542335 C -1.2161850021401288 1.5960789239470805 -1.2300685614548832 1.6044932023196594 -1.2404461714477306 1.6044932023196594 L -1.3590874965010897 1.6044932023196594 C -1.3694651064939367 1.6044932023196594 -1.3724101039243393 1.5960789239470805 -1.3656786812262762 1.5857013139542335 L -1.2886412881262226 1.4670599889008744 C -1.281863119437201 1.4566823789080274 -1.2679795601224462 1.448268100535449 -1.2576019501295992 1.448268100535449 L -1.2363325242433585 1.448268100535449 L -1.7605420668550091 0.6022591561636237 L -1.868431813987851 0.6022591561636237 C -1.878809423980698 0.6022591561636237 -1.8817544214111006 0.593844877791045 -1.8750229987130376 0.5834672677981978 L -1.8223870128934623 0.5024564654666488 L -1.9294353321890463 0.5024564654666488 L -2.246513388862385 0.9906715950400462 L -2.2960641392786822 1.067007798275718 L -2.204441996999492 1.1977095889964398 L -2.13647332614544 1.1977095889964398 C -2.1260957161525926 1.1977095889964398 -2.1231039727312315 1.2061238673690184 -2.1298821414202536 1.2165014773618656 L -2.159378861715237 1.2619853265647492 L -1.7913009289058799 1.7870362970136573 L -1.4964272179379567 1.7870362970136573 L -1.451364082653702 1.7176185004398836 C -1.4445859139646804 1.7072408904470366 -1.4307023546499256 1.6988266120744577 -1.4203247446570786 1.6988266120744577 L -1.30168341960372 1.6988266120744577 C -1.2913058096108725 1.6988266120744577 -1.2883608121804704 1.7072408904470366 -1.295092234878533 1.7176185004398836 L -1.3402021161537463 1.7870362970136573 L -1.2360520482976058 1.7870362970136573 L -1.165231871995069 1.6780246460978048 L -1.1287699990472282 1.6218827109563216 Z M -1.9671593468927742 0.9659429658228567 L -2.0441967399928274 1.0845842908762156 C -2.0509281626908904 1.0949619008690625 -2.0648117220056452 1.1033761792416412 -2.075189331998492 1.1033761792416412 L -2.1938306570518513 1.1033761792416412 C -2.2042082670446987 1.1033761792416412 -2.2071532644751004 1.0949619008690625 -2.200421841777038 1.0845842908762156 L -2.123384448676984 0.9659429658228567 C -2.1166530259789216 0.9555653558300097 -2.1027694666641668 0.947151077457431 -2.0923918566713198 0.947151077457431 L -1.9737505316179607 0.947151077457431 C -1.9633729216251135 0.947151077457431 -1.9604279241947111 0.9555653558300097 -1.9671593468927742 0.9659429658228567 M -1.8044365523652945 0.7153844542838479 L -1.881473945465348 0.8340257793372068 C -1.888205368163411 0.8444033893300538 -1.9021356734691246 0.8528176677026325 -1.9125132834619716 0.8528176677026325 L -2.031107862524372 0.8528176677026325 C -2.041485472517219 0.8528176677026325 -2.0444772159385804 0.8444033893300538 -2.037699047249558 0.8340257793372068 L -1.9606616541495048 0.7153844542838479 C -1.9539302314514422 0.7050068442910002 -1.9400466721366871 0.6965925659184218 -1.9296690621438402 0.6965925659184218 L -1.811027737090481 0.6965925659184218 C -1.800650127097634 0.6965925659184218 -1.7977051296672315 0.7050068442910002 -1.8044365523652945 0.7153844542838479" fill="#a7a5a6" transform="matrix(1,0,0,1,0,0)" fill-rule="nonzero"></path></g><g clip-path="url(#SvgjsClipPath10008c63cfec-ad1d-4b6b-8111-5a30b792452f)"><path d=" M -2.7636388269222314 1.7870830430046163 L -2.2960386793616516 1.067007798275718 L -2.296833361207951 1.0658391485017489 Z" fill="#a7a5a6" transform="matrix(1,0,0,1,0,0)" fill-rule="nonzero"></path></g><g clip-path="url(#d6920c1db-4511-4b32-9b00-0155108ed5368c63cfec-ad1d-4b6b-8111-5a30b792452f)"><path d=" M -2.206919534520307 1.3351428024152248 C -2.2136509572183702 1.3455204124080717 -2.227534516533125 1.3539346907806507 -2.2379588725169306 1.3539346907806507 L -2.356553451579331 1.3539346907806507 C -2.366931061572178 1.3539346907806507 -2.3698760590025807 1.3455204124080717 -2.3631446363045177 1.3351428024152248 L -2.286107243204464 1.2165014773618656 C -2.2793758205064014 1.2061238673690184 -2.265492261191646 1.1977095889964398 -2.2551146511987996 1.1977095889964398 L -2.2044419969994924 1.1977095889964398 L -2.2960641392786822 1.067007798275718 L -2.763711032830221 1.7870830430046163 L -2.6566159675436776 1.7870830430046163 L -2.6115528322594233 1.7176185004398836 C -2.60482140956136 1.7072408904470362 -2.590891104255647 1.6988266120744577 -2.5805134942627994 1.6988266120744577 L -2.4619189152003997 1.6988266120744577 C -2.4514945592165933 1.6988266120744577 -2.4485495617861908 1.7072408904470362 -2.455327730475213 1.7176185004398836 L -2.500390865759467 1.7870830430046163 L -1.7913476748968389 1.7870830430046163 L -2.1594256077061966 1.2619853265647492 Z M -2.2926049359477334 1.4670599889008744 L -2.369642329047787 1.585701313954234 C -2.3763737517458496 1.5960789239470805 -2.3902573110606045 1.6044932023196594 -2.4006349210534514 1.6044932023196594 L -2.519276246106811 1.6044932023196594 C -2.5296538560996575 1.6044932023196594 -2.53259885353006 1.5960789239470805 -2.5258674308319975 1.585701313954234 L -2.448830037731944 1.4670599889008749 C -2.442098615033881 1.4566823789080274 -2.428215055719126 1.448268100535449 -2.4177906997353205 1.448268100535449 L -2.29919612067292 1.448268100535449 C -2.288818510680073 1.448268100535449 -2.2858735132496704 1.4566823789080274 -2.2926049359477334 1.4670599889008749" fill="#939192" transform="matrix(1,0,0,1,0,0)" fill-rule="nonzero"></path></g></g></g><defs><clipPath id="SvgjsClipPath1002"><path d=" M -3.5984074473900236 -0.7820830430046164 h 3.1984074473900237 v 2.5691660860092327 h -3.1984074473900237 Z"></path></clipPath><clipPath id="a6920c1db-4511-4b32-9b00-0155108ed5368c63cfec-ad1d-4b6b-8111-5a30b792452f"><path d=" M -3.5984074473900236 1.7870830430046163 L -0.3999999999999986 1.7870830430046163 L -0.3999999999999986 -0.7821233660803596 L -3.5984074473900236 -0.7821233660803596 Z"></path></clipPath><clipPath id="SvgjsClipPath10008c63cfec-ad1d-4b6b-8111-5a30b792452f"><path d=" M -3.5984074473900236 -0.7820830430046164 L -0.3999999999999999 -0.7820830430046164 L -0.3999999999999999 1.7870830430046163 L -3.5984074473900236 1.7870830430046163 Z"></path></clipPath><clipPath id="b6920c1db-4511-4b32-9b00-0155108ed5368c63cfec-ad1d-4b6b-8111-5a30b792452f"><path d=" M -3.5984074473900236 1.7870830430046163 L -0.3999999999999986 1.7870830430046163 L -0.3999999999999986 -0.7821233660803596 L -3.5984074473900236 -0.7821233660803596 Z"></path></clipPath><clipPath id="c6920c1db-4511-4b32-9b00-0155108ed5368c63cfec-ad1d-4b6b-8111-5a30b792452f"><path d=" M -3.5984074473900236 1.7870830430046163 L -0.3999999999999986 1.7870830430046163 L -0.3999999999999986 -0.7821233660803596 L -3.5984074473900236 -0.7821233660803596 Z"></path></clipPath><clipPath id="d6920c1db-4511-4b32-9b00-0155108ed5368c63cfec-ad1d-4b6b-8111-5a30b792452f"><path d=" M -3.5984074473900236 1.7870830430046163 L -0.3999999999999986 1.7870830430046163 L -0.3999999999999986 -0.7821233660803596 L -3.5984074473900236 -0.7821233660803596 Z"></path></clipPath></defs></svg>